error_06_fix_sv_h.ufo
<glyph name="ety004_cid03412_H" format="1">
  <advance width="1000"/>
  <outline>
    <contour>
      <point x="851" y="131" type="line"/>
      <point x="603" y="131" type="line"/>
      <point x="603" y="38" type="line"/>
      <point x="851" y="38" type="line"/>
    </contour>
    <contour>
      <point x="699" y="200" type="curve"/>
      <point x="559" y="200" type="line"/>
      <point x="551" y="146"/>
      <point x="538" y="83"/>
      <point x="524" y="37" type="curve"/>
      <point x="661" y="37" type="line"/>
      <point x="674" y="81"/>
      <point x="688" y="144"/>
    </contour>
  </outline>
</glyph>
<glyph name="ety013_cid05171_H" format="1">
  <advance width="1000"/>
  <outline>
    <contour>
      <point x="622" y="184" type="curve"/>
      <point x="492" y="184" type="line"/>
      <point x="488" y="125"/>
      <point x="479" y="54"/>
      <point x="470" y="5" type="curve"/>
      <point x="595" y="5" type="line"/>
      <point x="605" y="52"/>
      <point x="615" y="122"/>
    </contour>
    <contour>
      <point x="963" y="113" type="line"/>
      <point x="499" y="113" type="line"/>
      <point x="499" y="3" type="line"/>
      <point x="963" y="3" type="line"/>
    </contour>
  </outline>
</glyph>
<glyph name="ety019_cid06256_H" format="1">
  <advance width="1000"/>
  <outline>
    <contour>
      <point x="667" y="234" type="line"/>
      <point x="261" y="234" type="line"/>
      <point x="261" y="114" type="line"/>
      <point x="667" y="114" type="line"/>
    </contour>
    <contour>
      <point x="430" y="555" type="curve"/>
      <point x="270" y="555" type="line"/>
      <point x="243" y="410"/>
      <point x="197" y="231"/>
      <point x="158" y="113" type="curve"/>
      <point x="322" y="113" type="line"/>
      <point x="355" y="226"/>
      <point x="398" y="404"/>
    </contour>
  </outline>
</glyph>
<glyph name="ety020_cid06414_H" format="1">
  <advance width="1000"/>
  <outline>
    <contour>
      <point x="448" y="126" type="line"/>
      <point x="289" y="126" type="line"/>
      <point x="273" y="50" type="line"/>
      <point x="448" y="50" type="line"/>
    </contour>
    <contour>
      <point x="365" y="230" type="curve"/>
      <point x="263" y="230" type="line"/>
      <point x="256" y="171"/>
      <point x="243" y="99"/>
      <point x="230" y="51" type="curve"/>
      <point x="335" y="51" type="line"/>
      <point x="345" y="98"/>
      <point x="356" y="169"/>
    </contour>
  </outline>
</glyph>
<glyph name="ety029_cid07651_H" format="1">
  <advance width="1000"/>
  <outline>
    <contour>
      <point x="842" y="651" type="line"/>
      <point x="535" y="651" type="line"/>
      <point x="535" y="556" type="line"/>
      <point x="842" y="556" type="line"/>
    </contour>
    <contour>
      <point x="675" y="784" type="curve"/>
      <point x="538" y="784" type="line"/>
      <point x="520" y="710"/>
      <point x="490" y="618"/>
      <point x="464" y="557" type="curve"/>
      <point x="604" y="557" type="line"/>
      <point x="626" y="616"/>
      <point x="654" y="707"/>
    </contour>
  </outline>
</glyph>
<glyph name="ety031_cid08148_H" format="1">
  <advance width="1000"/>
  <outline>
    <contour>
      <point x="962" y="217" type="line"/>
      <point x="669" y="217" type="line"/>
      <point x="669" y="134" type="line"/>
      <point x="962" y="134" type="line"/>
    </contour>
    <contour>
      <point x="731" y="252" type="curve"/>
      <point x="627" y="252" type="line"/>
      <point x="620" y="213"/>
      <point x="610" y="168"/>
      <point x="599" y="135" type="curve"/>
      <point x="708" y="135" type="line"/>
      <point x="716" y="167"/>
      <point x="724" y="211"/>
    </contour>
  </outline>
</glyph>
<glyph name="ety033_cid09023_H" format="1">
  <advance width="1000"/>
  <outline>
    <contour>
      <point x="844" y="219" type="line"/>
      <point x="618" y="219" type="line"/>
      <point x="618" y="109" type="line"/>
      <point x="844" y="109" type="line"/>
    </contour>
    <contour>
      <point x="753" y="347" type="curve"/>
      <point x="613" y="347" type="line"/>
      <point x="600" y="268"/>
      <point x="578" y="173"/>
      <point x="558" y="108" type="curve"/>
      <point x="696" y="108" type="line"/>
      <point x="715" y="170"/>
      <point x="737" y="266"/>
    </contour>
  </outline>
</glyph>
<glyph name="ety036_cid09240_EL" format="1">
  <advance width="1000"/>
  <outline>
    <contour>
      <point x="868" y="661" type="line"/>
      <point x="515" y="661" type="line"/>
      <point x="515" y="631" type="line"/>
      <point x="868" y="631" type="line"/>
    </contour>
    <contour>
      <point x="591" y="788" type="curve"/>
      <point x="560" y="788" type="line"/>
      <point x="542" y="737"/>
      <point x="518" y="675"/>
      <point x="496" y="632" type="curve"/>
      <point x="528" y="632" type="line"/>
      <point x="547" y="672"/>
      <point x="571" y="734"/>
    </contour>
  </outline>
</glyph>
<glyph name="ety040_cid11228_H" format="1">
  <advance width="1000"/>
  <outline>
    <contour>
      <point x="517" y="664" type="line"/>
      <point x="372" y="664" type="line"/>
      <point x="372" y="550" type="line"/>
      <point x="517" y="550" type="line"/>
    </contour>
    <contour>
      <point x="495" y="815" type="curve"/>
      <point x="364" y="815" type="line"/>
      <point x="352" y="728"/>
      <point x="331" y="621"/>
      <point x="312" y="549" type="curve"/>
      <point x="442" y="549" type="line"/>
      <point x="459" y="618"/>
      <point x="479" y="725"/>
    </contour>
  </outline>
</glyph>
<glyph name="ety047_cid16140_H" format="1">
  <advance width="1000"/>
  <outline>
    <contour>
      <point x="690" y="496" type="line"/>
      <point x="412" y="496" type="line"/>
      <point x="412" y="369" type="line"/>
      <point x="690" y="369" type="line"/>
    </contour>
    <contour>
      <point x="514" y="660" type="curve"/>
      <point x="413" y="668" type="line"/>
      <point x="405" y="571"/>
      <point x="390" y="446"/>
      <point x="376" y="368" type="curve"/>
      <point x="479" y="368" type="line"/>
      <point x="491" y="442"/>
      <point x="505" y="563"/>
    </contour>
  </outline>
</glyph>
<glyph name="ety050_cid17301_EL" format="1">
  <advance width="1000"/>
  <outline>
    <contour>
      <point x="850" y="93" type="line"/>
      <point x="187" y="93" type="line"/>
      <point x="187" y="64" type="line"/>
      <point x="850" y="64" type="line"/>
    </contour>
    <contour>
      <point x="244" y="191" type="curve"/>
      <point x="213" y="191" type="line"/>
      <point x="199" y="149"/>
      <point x="181" y="101"/>
      <point x="164" y="65" type="curve"/>
      <point x="195" y="65" type="line"/>
      <point x="210" y="98"/>
      <point x="228" y="146"/>
    </contour>
  </outline>
</glyph>
<glyph name="ety051_cid17327_EL" format="1">
  <advance width="1000"/>
  <outline>
    <contour>
      <point x="317" y="827" type="curve"/>
      <point x="287" y="832" type="line"/>
      <point x="270" y="775"/>
      <point x="245" y="704"/>
      <point x="225" y="656" type="curve"/>
      <point x="258" y="656" type="line"/>
      <point x="276" y="701"/>
      <point x="300" y="769"/>
    </contour>
    <contour>
      <point x="723" y="684" type="line"/>
      <point x="251" y="684" type="line"/>
      <point x="238" y="655" type="line"/>
      <point x="723" y="655" type="line"/>
    </contour>
  </outline>
</glyph>
<glyph name="ety052_cid18023_H" format="1">
  <advance width="1000"/>
  <outline>
    <contour>
      <point x="482" y="140" type="curve"/>
      <point x="352" y="152" type="line"/>
      <point x="342" y="100"/>
      <point x="327" y="36"/>
      <point x="313" y="-7" type="curve"/>
      <point x="447" y="-7" type="line"/>
      <point x="459" y="31"/>
      <point x="472" y="90"/>
    </contour>
    <contour>
      <point x="975" y="104" type="line"/>
      <point x="439" y="104" type="line"/>
      <point x="383" y="-8" type="line"/>
      <point x="975" y="-8" type="line"/>
    </contour>
  </outline>
</glyph>
<glyph name="ety053_cid18054_EL" format="1">
  <advance width="1000"/>
  <outline>
    <contour>
      <point x="840" y="215" type="line"/>
      <point x="477" y="215" type="line"/>
      <point x="463" y="185" type="line"/>
      <point x="840" y="185" type="line"/>
    </contour>
    <contour>
      <point x="530" y="328" type="curve"/>
      <point x="502" y="333" type="line"/>
      <point x="486" y="285"/>
      <point x="466" y="228"/>
      <point x="447" y="186" type="curve"/>
      <point x="477" y="186" type="line"/>
      <point x="494" y="225"/>
      <point x="515" y="279"/>
    </contour>
  </outline>
</glyph>
<glyph name="ety056_cid18984_EL" format="1">
  <advance width="1000"/>
  <outline>
    <contour>
      <point x="937" y="89" type="line"/>
      <point x="406" y="89" type="line"/>
      <point x="406" y="60" type="line"/>
      <point x="937" y="60" type="line"/>
    </contour>
    <contour>
      <point x="489" y="549" type="curve"/>
      <point x="459" y="549" type="line"/>
      <point x="443" y="400"/>
      <point x="414" y="180"/>
      <point x="391" y="59" type="curve"/>
      <point x="423" y="59" type="line"/>
      <point x="443" y="178"/>
      <point x="472" y="397"/>
    </contour>
  </outline>
</glyph>
<glyph name="ety060_cid21944_H" format="1">
  <advance width="1000"/>
  <outline>
    <contour>
      <point x="974" y="456" type="line"/>
      <point x="658" y="456" type="line"/>
      <point x="658" y="340" type="line"/>
      <point x="974" y="340" type="line"/>
    </contour>
    <contour>
      <point x="741" y="641" type="curve"/>
      <point x="640" y="641" type="line"/>
      <point x="633" y="555"/>
      <point x="614" y="418"/>
      <point x="595" y="339" type="curve"/>
      <point x="703" y="340" type="line"/>
      <point x="717" y="415"/>
      <point x="728" y="534"/>
    </contour>
  </outline>
</glyph>
<glyph name="ety061_cid22026_EL" format="1">
  <advance width="1000"/>
  <outline>
    <contour>
      <point x="851" y="138" type="line"/>
      <point x="471" y="138" type="line"/>
      <point x="471" y="109" type="line"/>
      <point x="851" y="109" type="line"/>
    </contour>
    <contour>
      <point x="545" y="253" type="curve"/>
      <point x="512" y="253" type="line"/>
      <point x="493" y="206"/>
      <point x="469" y="150"/>
      <point x="447" y="110" type="curve"/>
      <point x="478" y="110" type="line"/>
      <point x="498" y="147"/>
      <point x="524" y="203"/>
    </contour>
  </outline>
</glyph>
<glyph name="ety063_cid22844_H" format="1">
  <advance width="1000"/>
  <outline>
    <contour>
      <point x="839" y="101" type="line"/>
      <point x="213" y="101" type="line"/>
      <point x="213" y="-47" type="line"/>
      <point x="839" y="-47" type="line"/>
    </contour>
    <contour>
      <point x="339" y="809" type="curve"/>
      <point x="194" y="809" type="line"/>
      <point x="187" y="526"/>
      <point x="161" y="177"/>
      <point x="132" y="-48" type="curve"/>
      <point x="279" y="-47" type="line"/>
      <point x="303" y="170"/>
      <point x="327" y="520"/>
    </contour>
  </outline>
</glyph>
<glyph name="ety065_cid24204_H" format="1">
  <advance width="1000"/>
  <outline>
    <contour>
      <point x="962" y="456" type="line"/>
      <point x="642" y="456" type="line"/>
      <point x="642" y="340" type="line"/>
      <point x="962" y="340" type="line"/>
    </contour>
    <contour>
      <point x="731" y="641" type="curve"/>
      <point x="624" y="641" type="line"/>
      <point x="617" y="554"/>
      <point x="598" y="418"/>
      <point x="579" y="339" type="curve"/>
      <point x="693" y="340" type="line"/>
      <point x="707" y="414"/>
      <point x="717" y="532"/>
    </contour>
  </outline>
</glyph>
<glyph name="ety067_cid24760_H" format="1">
  <advance width="1000"/>
  <outline>
    <contour>
      <point x="405" y="690" type="curve"/>
      <point x="313" y="690" type="line"/>
      <point x="308" y="593"/>
      <point x="297" y="474"/>
      <point x="287" y="395" type="curve"/>
      <point x="380" y="395" type="line"/>
      <point x="389" y="471"/>
      <point x="398" y="591"/>
    </contour>
    <contour>
      <point x="626" y="464" type="line"/>
      <point x="346" y="464" type="line"/>
      <point x="346" y="394" type="line"/>
      <point x="626" y="394" type="line"/>
    </contour>
  </outline>
</glyph>
<glyph name="ety068_cid24886_H" format="1">
  <advance width="1000"/>
  <outline>
    <contour>
      <point x="956" y="559" type="line"/>
      <point x="145" y="559" type="line"/>
      <point x="136" y="425" type="line"/>
      <point x="956" y="425" type="line"/>
    </contour>
    <contour>
      <point x="301" y="647" type="curve"/>
      <point x="155" y="670" type="line"/>
      <point x="127" y="590"/>
      <point x="84" y="490"/>
      <point x="50" y="426" type="curve"/>
      <point x="210" y="426" type="line"/>
      <point x="235" y="481"/>
      <point x="272" y="571"/>
    </contour>
  </outline>
</glyph>
<glyph name="ety071_cid26484_EL" format="1">
  <advance width="1000"/>
  <outline>
    <contour>
      <point x="938" y="89" type="line"/>
      <point x="422" y="89" type="line"/>
      <point x="422" y="60" type="line"/>
      <point x="938" y="60" type="line"/>
    </contour>
    <contour>
      <point x="502" y="549" type="curve"/>
      <point x="473" y="549" type="line"/>
      <point x="458" y="400"/>
      <point x="428" y="180"/>
      <point x="407" y="59" type="curve"/>
      <point x="437" y="59" type="line"/>
      <point x="458" y="178"/>
      <point x="485" y="397"/>
    </contour>
  </outline>
</glyph>
<glyph name="ety076_cid30563_EL" format="1">
  <advance width="1000"/>
  <outline>
    <contour>
      <point x="691" y="337" type="line"/>
      <point x="443" y="337" type="line"/>
      <point x="443" y="308" type="line"/>
      <point x="691" y="308" type="line"/>
    </contour>
    <contour>
      <point x="490" y="564" type="curve"/>
      <point x="461" y="564" type="line"/>
      <point x="455" y="483"/>
      <point x="444" y="374"/>
      <point x="433" y="307" type="curve"/>
      <point x="464" y="307" type="line"/>
      <point x="473" y="372"/>
      <point x="483" y="481"/>
    </contour>
  </outline>
</glyph>
<glyph name="ety079_cid31244_H" format="1">
  <advance width="1000"/>
  <outline>
    <contour>
      <point x="490" y="157" type="line"/>
      <point x="89" y="157" type="line"/>
      <point x="89" y="44" type="line"/>
      <point x="490" y="44" type="line"/>
    </contour>
    <contour>
      <point x="224" y="595" type="curve"/>
      <point x="99" y="595" type="line"/>
      <point x="86" y="417"/>
      <point x="57" y="188"/>
      <point x="30" y="45" type="curve"/>
      <point x="159" y="45" type="line"/>
      <point x="181" y="184"/>
      <point x="207" y="412"/>
    </contour>
  </outline>
</glyph>
<glyph name="ety082_cid33004_EL" format="1">
  <advance width="1000"/>
  <outline>
    <contour>
      <point x="840" y="192" type="line"/>
      <point x="518" y="192" type="line"/>
      <point x="518" y="163" type="line"/>
      <point x="840" y="163" type="line"/>
    </contour>
    <contour>
      <point x="574" y="307" type="curve"/>
      <point x="544" y="307" type="line"/>
      <point x="531" y="260"/>
      <point x="514" y="204"/>
      <point x="498" y="164" type="curve"/>
      <point x="529" y="164" type="line"/>
      <point x="543" y="201"/>
      <point x="561" y="257"/>
    </contour>
  </outline>
</glyph>
<glyph name="ety083_cid33397_EL" format="1">
  <advance width="1000"/>
  <outline>
    <contour>
      <point x="951" y="278" type="line"/>
      <point x="514" y="278" type="line"/>
      <point x="514" y="249" type="line"/>
      <point x="951" y="249" type="line"/>
    </contour>
    <contour>
      <point x="604" y="655" type="curve"/>
      <point x="575" y="655" type="line"/>
      <point x="555" y="531"/>
      <point x="521" y="350"/>
      <point x="494" y="248" type="curve"/>
      <point x="523" y="248" type="line"/>
      <point x="547" y="347"/>
      <point x="581" y="527"/>
    </contour>
  </outline>
</glyph>
<glyph name="ety085_cid34854_H" format="1">
  <advance width="1000"/>
  <outline>
    <contour>
      <point x="387" y="328" type="line"/>
      <point x="157" y="328" type="line"/>
      <point x="157" y="220" type="line"/>
      <point x="387" y="220" type="line"/>
    </contour>
    <contour>
      <point x="220" y="478" type="curve"/>
      <point x="96" y="478" type="line"/>
      <point x="92" y="394"/>
      <point x="82" y="291"/>
      <point x="71" y="221" type="curve"/>
      <point x="196" y="220" type="line"/>
      <point x="206" y="288"/>
      <point x="215" y="391"/>
    </contour>
  </outline>
</glyph>
<glyph name="ety088_cid35265_H" format="1">
  <advance width="1000"/>
  <outline>
    <contour>
      <point x="943" y="121" type="line"/>
      <point x="524" y="121" type="line"/>
      <point x="524" y="18" type="line"/>
      <point x="943" y="18" type="line"/>
    </contour>
    <contour>
      <point x="649" y="229" type="curve"/>
      <point x="530" y="229" type="line"/>
      <point x="521" y="160"/>
      <point x="505" y="76"/>
      <point x="491" y="19" type="curve"/>
      <point x="606" y="19" type="line"/>
      <point x="620" y="74"/>
      <point x="636" y="157"/>
    </contour>
  </outline>
</glyph>
<glyph name="ety089_cid35755_EL" format="1">
  <advance width="1000"/>
  <outline>
    <contour>
      <point x="212" y="577" type="curve"/>
      <point x="182" y="577" type="line"/>
      <point x="167" y="506"/>
      <point x="141" y="411"/>
      <point x="121" y="351" type="curve"/>
      <point x="152" y="351" type="line"/>
      <point x="170" y="408"/>
      <point x="194" y="503"/>
    </contour>
    <contour>
      <point x="513" y="379" type="line"/>
      <point x="133" y="379" type="line"/>
      <point x="133" y="350" type="line"/>
      <point x="513" y="350" type="line"/>
    </contour>
  </outline>
</glyph>
<glyph name="ety090_cid35826_H" format="1">
  <advance width="1000"/>
  <outline>
    <contour>
      <point x="192" y="446" type="curve"/>
      <point x="71" y="446" type="line"/>
      <point x="65" y="353"/>
      <point x="53" y="238"/>
      <point x="40" y="162" type="curve"/>
      <point x="162" y="162" type="line"/>
      <point x="173" y="236"/>
      <point x="185" y="350"/>
    </contour>
    <contour>
      <point x="288" y="274" type="line"/>
      <point x="111" y="274" type="line"/>
      <point x="97" y="161" type="line"/>
      <point x="288" y="161" type="line"/>
    </contour>
  </outline>
</glyph>
<glyph name="ety095_cid40416_EL" format="1">
  <advance width="1000"/>
  <outline>
    <contour>
      <point x="829" y="283" type="line"/>
      <point x="431" y="283" type="line"/>
      <point x="431" y="254" type="line"/>
      <point x="829" y="254" type="line"/>
    </contour>
    <contour>
      <point x="509" y="388" type="curve"/>
      <point x="478" y="388" type="line"/>
      <point x="459" y="343"/>
      <point x="432" y="291"/>
      <point x="410" y="253" type="curve"/>
      <point x="438" y="253" type="line"/>
      <point x="459" y="288"/>
      <point x="485" y="340"/>
    </contour>
  </outline>
</glyph>
<glyph name="ety096_cid40843_EL" format="1">
  <advance width="1000"/>
  <outline>
    <contour>
      <point x="204" y="483" type="curve"/>
      <point x="176" y="486" type="line"/>
      <point x="164" y="402"/>
      <point x="143" y="284"/>
      <point x="127" y="214" type="curve"/>
      <point x="156" y="214" type="line"/>
      <point x="172" y="281"/>
      <point x="192" y="396"/>
    </contour>
    <contour>
      <point x="580" y="242" type="line"/>
      <point x="147" y="242" type="line"/>
      <point x="138" y="213" type="line"/>
      <point x="580" y="213" type="line"/>
    </contour>
  </outline>
</glyph>
<glyph name="ety097_cid41336_EL" format="1">
  <advance width="1000"/>
  <outline>
    <contour>
      <point x="709" y="337" type="line"/>
      <point x="466" y="337" type="line"/>
      <point x="466" y="308" type="line"/>
      <point x="709" y="308" type="line"/>
    </contour>
    <contour>
      <point x="508" y="564" type="curve"/>
      <point x="478" y="564" type="line"/>
      <point x="473" y="483"/>
      <point x="462" y="374"/>
      <point x="451" y="307" type="curve"/>
      <point x="481" y="307" type="line"/>
      <point x="490" y="372"/>
      <point x="501" y="481"/>
    </contour>
  </outline>
</glyph>
<glyph name="ety099_cid42665_H" format="1">
  <advance width="1000"/>
  <outline>
    <contour>
      <point x="669" y="496" type="line"/>
      <point x="389" y="496" type="line"/>
      <point x="389" y="370" type="line"/>
      <point x="669" y="370" type="line"/>
    </contour>
    <contour>
      <point x="498" y="660" type="curve"/>
      <point x="392" y="666" type="line"/>
      <point x="386" y="571"/>
      <point x="374" y="448"/>
      <point x="361" y="371" type="curve"/>
      <point x="468" y="371" type="line"/>
      <point x="479" y="444"/>
      <point x="491" y="564"/>
    </contour>
  </outline>
</glyph>
<glyph name="ety102_cid43422_EL" format="1">
  <advance width="1000"/>
  <outline>
    <contour>
      <point x="778" y="138" type="line"/>
      <point x="275" y="138" type="line"/>
      <point x="275" y="109" type="line"/>
      <point x="778" y="109" type="line"/>
    </contour>
    <contour>
      <point x="337" y="249" type="curve"/>
      <point x="307" y="249" type="line"/>
      <point x="292" y="203"/>
      <point x="272" y="149"/>
      <point x="254" y="110" type="curve"/>
      <point x="285" y="110" type="line"/>
      <point x="301" y="146"/>
      <point x="321" y="200"/>
    </contour>
  </outline>
</glyph>
<glyph name="ety106_cid45465_H" format="1">
  <advance width="1000"/>
  <outline>
    <contour>
      <point x="626" y="719" type="curve"/>
      <point x="537" y="730" type="line"/>
      <point x="527" y="694"/>
      <point x="513" y="653"/>
      <point x="500" y="622" type="curve"/>
      <point x="594" y="622" type="line"/>
      <point x="605" y="648"/>
      <point x="617" y="685"/>
    </contour>
    <contour>
      <point x="942" y="693" type="line"/>
      <point x="577" y="693" type="line"/>
      <point x="556" y="621" type="line"/>
      <point x="942" y="621" type="line"/>
    </contour>
  </outline>
</glyph>
<glyph name="ety108_cid46118_EL" format="1">
  <advance width="1000"/>
  <outline>
    <contour>
      <point x="858" y="192" type="line"/>
      <point x="557" y="192" type="line"/>
      <point x="557" y="163" type="line"/>
      <point x="858" y="163" type="line"/>
    </contour>
    <contour>
      <point x="614" y="307" type="curve"/>
      <point x="583" y="307" type="line"/>
      <point x="571" y="260"/>
      <point x="553" y="204"/>
      <point x="537" y="164" type="curve"/>
      <point x="569" y="164" type="line"/>
      <point x="582" y="201"/>
      <point x="600" y="257"/>
    </contour>
  </outline>
</glyph>
<glyph name="ety110_cid46885_EL" format="1">
  <advance width="1000"/>
  <outline>
    <contour>
      <point x="951" y="122" type="line"/>
      <point x="734" y="122" type="line"/>
      <point x="728" y="92" type="line"/>
      <point x="951" y="92" type="line"/>
    </contour>
    <contour>
      <point x="770" y="296" type="curve"/>
      <point x="744" y="299" type="line"/>
      <point x="737" y="234"/>
      <point x="725" y="148"/>
      <point x="714" y="93" type="curve"/>
      <point x="738" y="93" type="line"/>
      <point x="749" y="145"/>
      <point x="762" y="229"/>
    </contour>
  </outline>
</glyph>
<glyph name="ety111_cid47407_EL" format="1">
  <advance width="1000"/>
  <outline>
    <contour>
      <point x="866" y="215" type="line"/>
      <point x="600" y="215" type="line"/>
      <point x="585" y="185" type="line"/>
      <point x="866" y="185" type="line"/>
    </contour>
    <contour>
      <point x="653" y="328" type="curve"/>
      <point x="624" y="333" type="line"/>
      <point x="609" y="285"/>
      <point x="588" y="228"/>
      <point x="570" y="186" type="curve"/>
      <point x="600" y="186" type="line"/>
      <point x="617" y="225"/>
      <point x="637" y="279"/>
    </contour>
  </outline>
</glyph>
<glyph name="ety113_cid59542_H" format="1">
  <advance width="1000"/>
  <outline>
    <contour>
      <point x="665" y="155" type="line"/>
      <point x="331" y="155" type="line"/>
      <point x="331" y="42" type="line"/>
      <point x="665" y="42" type="line"/>
    </contour>
    <contour>
      <point x="441" y="593" type="curve"/>
      <point x="336" y="593" type="line"/>
      <point x="323" y="417"/>
      <point x="295" y="184"/>
      <point x="270" y="43" type="curve"/>
      <point x="378" y="43" type="line"/>
      <point x="400" y="180"/>
      <point x="425" y="413"/>
    </contour>
  </outline>
</glyph>
<glyph name="ety118_cid60140_H" format="1">
  <advance width="1000"/>
  <outline>
    <contour>
      <point x="883" y="541" type="line"/>
      <point x="770" y="541" type="line"/>
      <point x="741" y="417" type="line"/>
      <point x="883" y="417" type="line"/>
    </contour>
    <contour>
      <point x="937" y="795" type="curve"/>
      <point x="816" y="795" type="line"/>
      <point x="799" y="676"/>
      <point x="769" y="525"/>
      <point x="744" y="427" type="curve"/>
      <point x="862" y="427" type="line"/>
      <point x="886" y="521"/>
      <point x="916" y="672"/>
    </contour>
  </outline>
</glyph>
<glyph name="ety119_cid60215_H" format="1">
  <advance width="1000"/>
  <outline>
    <contour>
      <point x="961" y="183" type="line"/>
      <point x="668" y="183" type="line"/>
      <point x="668" y="76" type="line"/>
      <point x="961" y="76" type="line"/>
    </contour>
    <contour>
      <point x="761" y="308" type="curve"/>
      <point x="665" y="308" type="line"/>
      <point x="660" y="233"/>
      <point x="650" y="139"/>
      <point x="640" y="77" type="curve"/>
      <point x="742" y="77" type="line"/>
      <point x="749" y="137"/>
      <point x="756" y="230"/>
    </contour>
  </outline>
</glyph>
<glyph name="ety121_cid60308_EL" format="1">
  <advance width="1000"/>
  <outline>
    <contour>
      <point x="507" y="827" type="curve"/>
      <point x="477" y="832" type="line"/>
      <point x="460" y="775"/>
      <point x="435" y="704"/>
      <point x="415" y="656" type="curve"/>
      <point x="448" y="656" type="line"/>
      <point x="466" y="701"/>
      <point x="490" y="769"/>
    </contour>
    <contour>
      <point x="777" y="684" type="line"/>
      <point x="441" y="684" type="line"/>
      <point x="428" y="655" type="line"/>
      <point x="777" y="655" type="line"/>
    </contour>
  </outline>
</glyph>
<glyph name="ety123_cid60721_EL" format="1">
  <advance width="1000"/>
  <outline>
    <contour>
      <point x="843" y="192" type="line"/>
      <point x="516" y="192" type="line"/>
      <point x="516" y="163" type="line"/>
      <point x="843" y="163" type="line"/>
    </contour>
    <contour>
      <point x="573" y="307" type="curve"/>
      <point x="542" y="307" type="line"/>
      <point x="529" y="260"/>
      <point x="512" y="204"/>
      <point x="496" y="164" type="curve"/>
      <point x="527" y="164" type="line"/>
      <point x="541" y="201"/>
      <point x="559" y="257"/>
    </contour>
  </outline>
</glyph>
<glyph name="ety126_cid61332_H" format="1">
  <advance width="1000"/>
  <outline>
    <contour>
      <point x="883" y="734" type="line"/>
      <point x="749" y="734" type="line"/>
      <point x="749" y="630" type="line"/>
      <point x="883" y="630" type="line"/>
    </contour>
    <contour>
      <point x="820" y="824" type="curve"/>
      <point x="707" y="824" type="line"/>
      <point x="701" y="760"/>
      <point x="690" y="684"/>
      <point x="679" y="631" type="curve"/>
      <point x="793" y="631" type="line"/>
      <point x="803" y="682"/>
      <point x="813" y="758"/>
    </contour>
  </outline>
</glyph>
<glyph name="ety127_cid61768_EL" format="1">
  <advance width="1000"/>
  <outline>
    <contour>
      <point x="535" y="782" type="curve"/>
      <point x="506" y="782" type="line"/>
      <point x="492" y="570"/>
      <point x="461" y="247"/>
      <point x="436" y="76" type="curve"/>
      <point x="468" y="76" type="line"/>
      <point x="490" y="244"/>
      <point x="519" y="566"/>
    </contour>
    <contour>
      <point x="923" y="106" type="line"/>
      <point x="455" y="106" type="line"/>
      <point x="455" y="77" type="line"/>
      <point x="923" y="77" type="line"/>
    </contour>
  </outline>
</glyph>
